<?xml version="1.0" standalone="no"?>
<!DOCTYPE svg PUBLIC "-//W3C//DTD SVG 20010904//EN"
 "http://www.w3.org/TR/2001/REC-SVG-20010904/DTD/svg10.dtd">
<svg version="1.0" xmlns="http://www.w3.org/2000/svg"
 width="401.000000pt" height="401.000000pt" viewBox="0 0 401.000000 401.000000"
 preserveAspectRatio="xMidYMid meet">
<metadata>
Created by potrace 1.11, written by Peter Selinger 2001-2013
</metadata>
<g transform="translate(0.000000,401.000000) scale(0.100000,-0.100000)"
fill="#000000" stroke="none">
<path d="M1977 4004 c-1 -1 -49 -4 -107 -8 -171 -10 -316 -37 -467 -85 -456
-148 -810 -415 -1076 -813 -137 -205 -255 -498 -293 -728 -2 -14 -6 -34 -9
-45 -20 -93 -27 -420 -12 -559 28 -258 137 -574 276 -801 321 -524 851 -869
1456 -949 109 -14 436 -15 515 -1 221 39 339 70 495 133 691 277 1177 936
1241 1682 7 87 7 274 0 340 -3 25 -8 70 -11 100 -29 276 -193 686 -359 902
-12 14 -32 41 -46 59 -135 180 -355 372 -565 496 -267 156 -560 247 -865 269
-81 6 -171 10 -173 8z"/>
</g>
</svg>
