<svg xmlns="http://www.w3.org/2000/svg" viewBox="0 0 406 406"><defs><style>.cls-1{fill:#0f4c5c;}.cls-2{fill:#fff;}</style></defs><title>css</title><g id="Layer_2" data-name="Layer 2"><g id="Layer_1-2" data-name="Layer 1"><circle class="cls-1" cx="203" cy="203" r="203"/><path class="cls-2" d="M34.79,203q6.64,2.06,9.3,6.74t2.66,15.7v9.83q0,6.91,1.46,9.23t5.31,3.25q.86.2,2.46.4,5.84.8,5.84,5.44a4.32,4.32,0,0,1-1.53,3.52A6.61,6.61,0,0,1,56,258.41q-11.22,0-15.8-5.58t-4.58-21v-7.7q0-7.77-2.19-11t-10.76-4.68a6.19,6.19,0,0,1-3.72-1.63A5.5,5.5,0,0,1,17.79,203a5.28,5.28,0,0,1,.93-3.32,5.33,5.33,0,0,1,3-1.73q1-.2,2.85-.66,11-2.32,11-15.21v-7.9q0-15.34,4.65-21t15.87-5.64a6.24,6.24,0,0,1,4.22,1.29,4.46,4.46,0,0,1,1.49,3.55q0,4.58-5.84,5.31c-.75.13-1.35.22-1.79.27q-4.18.8-5.81,3.29T46.74,171v9.76q0,11.09-2.66,15.74T34.79,203Z"/><path class="cls-2" d="M142.35,157.09a4.74,4.74,0,0,1,1.86-2.52,6.69,6.69,0,0,1,3.45-.73,4.28,4.28,0,0,1,3.45,1.19q1,1.2,1,4.91,0,6.51.13,12.12t.13,4.88q0,3.12-1.06,4.22t-3.78,1.09q-4.38,0-5.71-6.24-.47-1.86-.73-2.86a13.59,13.59,0,0,0-6-8.13,19.91,19.91,0,0,0-11.22-3.15q-11.75,0-18.86,8.59t-7.1,23q0,14.46,7.2,23t19,8.59a29.46,29.46,0,0,0,7.83-1.1,34.12,34.12,0,0,0,7.83-3.29,44.47,44.47,0,0,0,4.91-3.15q3.12-2.22,4.45-2.22a4.86,4.86,0,0,1,3.48,1.36A4.45,4.45,0,0,1,154,220.1a5.83,5.83,0,0,1-1.56,3.82,26.83,26.83,0,0,1-5.81,4.5,43.91,43.91,0,0,1-11.22,5.41,40.24,40.24,0,0,1-11.88,1.74q-16.4,0-27.09-11.59T85.78,194.33q0-17.86,10.82-29.68t27.22-11.82a39.2,39.2,0,0,1,8.93,1.06A60,60,0,0,1,142.35,157.09Z"/><path class="cls-2" d="M183.58,231.32a6.81,6.81,0,0,1-1.53,4.15,5.28,5.28,0,0,1-3.79,1.16,5.1,5.1,0,0,1-4.15-1.63q-1.36-1.63-1.56-5.28l-.86-15.4v-1.19q0-3.19,1.23-4.52a5.36,5.36,0,0,1,4.08-1.33q4,0,5.71,5.71a25.37,25.37,0,0,0,1.53,4.31,15.89,15.89,0,0,0,7.34,7.17,26.39,26.39,0,0,0,12,2.52q8.56,0,13.91-4a12.46,12.46,0,0,0,5.34-10.36,11.21,11.21,0,0,0-3.29-8.43q-3.29-3.19-9.59-4.12l-9.83-1.33q-13.74-1.92-20.05-7.24t-6.31-14.94q0-10.16,8.4-17.06t20.95-6.9a33.35,33.35,0,0,1,7.7,1,65.53,65.53,0,0,1,9.16,3A3.54,3.54,0,0,1,221,153.9a5.27,5.27,0,0,1,3.19-.73,6.94,6.94,0,0,1,4,.86q1.13.86,1.39,4.12l.93,13.88v.66a4.82,4.82,0,0,1-1.33,3.62,5.1,5.1,0,0,1-3.72,1.29q-3.52,0-5.44-4.91a18.24,18.24,0,0,0-1.86-4.18,14,14,0,0,0-6.31-5.11,23.24,23.24,0,0,0-9.36-1.79q-8,0-13,4a12.68,12.68,0,0,0-5,10.42,9.55,9.55,0,0,0,3.75,8q3.75,2.92,11.45,4l10.62,1.33q11.55,1.53,17.4,7.07t5.84,15q0,11.15-8.3,17.89T203.1,236a40.67,40.67,0,0,1-9.49-1.13A57,57,0,0,1,183.58,231.32Z"/><path class="cls-2" d="M265.18,231.32a6.81,6.81,0,0,1-1.53,4.15,5.28,5.28,0,0,1-3.79,1.16,5.1,5.1,0,0,1-4.15-1.63q-1.36-1.63-1.56-5.28l-.86-15.4v-1.19q0-3.19,1.23-4.52a5.36,5.36,0,0,1,4.08-1.33q4,0,5.71,5.71a25.37,25.37,0,0,0,1.53,4.31,15.89,15.89,0,0,0,7.34,7.17,26.39,26.39,0,0,0,12,2.52q8.56,0,13.91-4a12.46,12.46,0,0,0,5.34-10.36,11.21,11.21,0,0,0-3.29-8.43q-3.29-3.19-9.59-4.12l-9.83-1.33q-13.74-1.92-20.05-7.24t-6.31-14.94q0-10.16,8.4-17.06t20.95-6.9a33.35,33.35,0,0,1,7.7,1,65.53,65.53,0,0,1,9.16,3,3.54,3.54,0,0,1,1.06-2.66,5.27,5.27,0,0,1,3.19-.73,6.94,6.94,0,0,1,4,.86q1.13.86,1.39,4.12l.93,13.88v.66a4.82,4.82,0,0,1-1.33,3.62,5.1,5.1,0,0,1-3.72,1.29q-3.52,0-5.44-4.91a18.24,18.24,0,0,0-1.86-4.18,14,14,0,0,0-6.31-5.11,23.24,23.24,0,0,0-9.36-1.79q-8,0-13,4a12.68,12.68,0,0,0-5,10.42,9.55,9.55,0,0,0,3.75,8q3.75,2.92,11.45,4l10.62,1.33q11.55,1.53,17.4,7.07t5.84,15q0,11.15-8.3,17.89T284.7,236a40.67,40.67,0,0,1-9.49-1.13A57,57,0,0,1,265.18,231.32Z"/><path class="cls-2" d="M371.21,203q-6.71-1.92-9.39-6.61t-2.69-15.7V171q0-7-1.46-9.46a7.94,7.94,0,0,0-5.18-3.35,25.46,25.46,0,0,0-2.59-.4q-5.71-.8-5.71-5a5,5,0,0,1,1.39-3.82,6,6,0,0,1,4.18-1.29q11.22,0,15.87,5.64t4.65,21v7.9q0,12.95,10.76,15.21,2.06.4,3.12.66a6,6,0,0,1,3.09,1.76,5,5,0,0,1,1,3.29,5.71,5.71,0,0,1-1,3.58,5,5,0,0,1-3.15,1.73l-2.06.4q-11.69,2.26-11.69,15.4v7.7q0,15.4-4.58,21t-15.8,5.58a6.19,6.19,0,0,1-4.28-1.29,5,5,0,0,1-1.43-3.88q0-4.25,5.71-5a15.07,15.07,0,0,0,1.73-.27q4.31-.73,5.91-3.05t1.59-9.56v-9.83q0-10.89,2.69-15.64T371.21,203Z"/></g></g></svg>