<svg xmlns="http://www.w3.org/2000/svg" viewBox="0 0 406 406"><defs><style>.cls-1{fill:#5f0f40;}.cls-2{fill:#fff;}</style></defs><title>php</title><g id="Layer_2" data-name="Layer 2"><g id="Layer_1-2" data-name="Layer 1"><circle class="cls-1" cx="203" cy="203" r="203"/><path class="cls-2" d="M36,195.53l30.76,14.18a8.83,8.83,0,0,1,2.64,1.74,2.95,2.95,0,0,1,.06,4,2.71,2.71,0,0,1-2,.76,4.62,4.62,0,0,1-1.3-.21,14.14,14.14,0,0,1-2-.84L30.75,199.56a2.11,2.11,0,0,1-.42-.17q-3.86-1.76-3.86-3.86t3.78-3.78l.5-.25L64.1,176.19a12.84,12.84,0,0,1,1.93-.78,5.1,5.1,0,0,1,1.38-.23,2.8,2.8,0,0,1,2,.71,2.57,2.57,0,0,1,.73,1.93,2.84,2.84,0,0,1-.8,2,8.33,8.33,0,0,1-2.64,1.7Z"/><path class="cls-2" d="M95.2,200.44a7,7,0,0,1,.78-3.57,6.34,6.34,0,0,1,2.67-2.27Q99.77,194,102,193q8.27-3.82,8.27-8.94a8,8,0,0,0-2.73-6.27,10.43,10.43,0,0,0-7.17-2.41,18,18,0,0,0-5.41.78q-2.48.78-3,1.7a4.94,4.94,0,0,0-.25,1.22q-.34,3.78-3,3.78a2.69,2.69,0,0,1-2.2-1,4.13,4.13,0,0,1-.82-2.69V175q0-2.31,4.53-3.9a33.47,33.47,0,0,1,11-1.59q7,0,11.39,4.07A13.72,13.72,0,0,1,117,184.12a11.82,11.82,0,0,1-3.56,8.71q-3.56,3.55-11.93,6.65v3.36a3,3,0,0,1-.89,2.25,3.64,3.64,0,0,1-4.62.06,3,3,0,0,1-.82-2.22Zm-4.62,15.9a5.63,5.63,0,0,1,2.12-4.53A8.48,8.48,0,0,1,98.3,210a8.7,8.7,0,0,1,5.67,1.74,5.92,5.92,0,0,1,0,9.13,8.65,8.65,0,0,1-5.64,1.76,8.43,8.43,0,0,1-5.58-1.78A5.67,5.67,0,0,1,90.58,216.34Z"/><path class="cls-2" d="M141.69,232.83h10.07a3.36,3.36,0,0,1,2.39.76,3,3,0,0,1,.8,2.27,2.92,2.92,0,0,1-.78,2.31,4.27,4.27,0,0,1-2.75.67H132.92a3.74,3.74,0,0,1-2.54-.75,2.8,2.8,0,0,1-.86-2.22,2.55,2.55,0,0,1,1.07-2.35,8.12,8.12,0,0,1,4-.67h.8V189.28h-.8a8.12,8.12,0,0,1-4-.67,2.55,2.55,0,0,1-1.07-2.35,2.74,2.74,0,0,1,.86-2.2,3.82,3.82,0,0,1,2.54-.73h6.38a3.11,3.11,0,0,1,1.83.42,1.51,1.51,0,0,1,.57,1.3v4.07A19.32,19.32,0,0,1,148,184.7a18.88,18.88,0,0,1,7.45-1.47,19.07,19.07,0,0,1,14.1,5.71,19.49,19.49,0,0,1,5.66,14.31,18.34,18.34,0,0,1-5.37,13.6,18.66,18.66,0,0,1-13.72,5.33,20.85,20.85,0,0,1-8.18-1.57,16.57,16.57,0,0,1-6.25-4.51Zm13-16.83a13.08,13.08,0,0,0,9.57-3.67,13.83,13.83,0,0,0,0-18.93,13,13,0,0,0-9.55-3.71,13.16,13.16,0,1,0,0,26.31Z"/><path class="cls-2" d="M188.31,216.18v-43h-.8a8,8,0,0,1-3.92-.67,2.55,2.55,0,0,1-1.07-2.35,2.85,2.85,0,0,1,.86-2.27,3.67,3.67,0,0,1,2.5-.75h6.38a2.93,2.93,0,0,1,1.76.46,1.48,1.48,0,0,1,.63,1.26v19a23,23,0,0,1,6.06-4.22,14.9,14.9,0,0,1,6.23-1.36q6.34,0,10,3.94t3.63,10.91v19h2a5.19,5.19,0,0,1,3,.69,2.57,2.57,0,0,1,.93,2.2,2.89,2.89,0,0,1-.84,2.27,3.67,3.67,0,0,1-2.52.76H211.94a4,4,0,0,1-2.67-.65,3.19,3.19,0,0,1-.69-2.37,2.62,2.62,0,0,1,.87-2.29,6.17,6.17,0,0,1,3.28-.61h1.48V198.72q0-4.91-2.23-7.49a8.09,8.09,0,0,0-6.48-2.58,11.08,11.08,0,0,0-7.59,2.89,9.22,9.22,0,0,0-3.26,7.18v17.46h1.47a6.33,6.33,0,0,1,3.4.63,2.6,2.6,0,0,1,.88,2.27,3.2,3.2,0,0,1-.69,2.37,4,4,0,0,1-2.67.65H185.88a3.5,3.5,0,0,1-2.45-.76,2.93,2.93,0,0,1-.82-2.27,2.47,2.47,0,0,1,1-2.29,8.17,8.17,0,0,1,3.84-.61Z"/><path class="cls-2" d="M244.84,232.83h10.07a3.36,3.36,0,0,1,2.39.76,3,3,0,0,1,.8,2.27,2.92,2.92,0,0,1-.78,2.31,4.27,4.27,0,0,1-2.75.67H236.07a3.74,3.74,0,0,1-2.54-.75,2.8,2.8,0,0,1-.86-2.22,2.55,2.55,0,0,1,1.07-2.35,8.12,8.12,0,0,1,4-.67h.8V189.28h-.8a8.12,8.12,0,0,1-4-.67,2.55,2.55,0,0,1-1.07-2.35,2.74,2.74,0,0,1,.86-2.2,3.82,3.82,0,0,1,2.54-.73h6.38a3.11,3.11,0,0,1,1.83.42,1.51,1.51,0,0,1,.57,1.3v4.07a19.32,19.32,0,0,1,6.32-4.41,18.88,18.88,0,0,1,7.45-1.47,19.07,19.07,0,0,1,14.1,5.71,19.49,19.49,0,0,1,5.66,14.31,18.34,18.34,0,0,1-5.37,13.6,18.66,18.66,0,0,1-13.72,5.33,20.85,20.85,0,0,1-8.18-1.57,16.57,16.57,0,0,1-6.25-4.51Zm13-16.83a13.08,13.08,0,0,0,9.57-3.67,13.83,13.83,0,0,0,0-18.93,13,13,0,0,0-9.55-3.71,13.16,13.16,0,1,0,0,26.31Z"/><path class="cls-2" d="M301.48,200.44a7,7,0,0,1,.78-3.57,6.34,6.34,0,0,1,2.67-2.27q1.13-.59,3.36-1.64,8.27-3.82,8.27-8.94a8,8,0,0,0-2.73-6.27,10.43,10.43,0,0,0-7.17-2.41,18,18,0,0,0-5.41.78q-2.48.78-3,1.7A4.94,4.94,0,0,0,298,179q-.34,3.78-3,3.78a2.69,2.69,0,0,1-2.2-1,4.13,4.13,0,0,1-.82-2.69V175q0-2.31,4.53-3.9a33.47,33.47,0,0,1,11-1.59q7,0,11.39,4.07a13.72,13.72,0,0,1,4.38,10.53,11.82,11.82,0,0,1-3.56,8.71q-3.56,3.55-11.93,6.65v3.36a3,3,0,0,1-.89,2.25,3.64,3.64,0,0,1-4.62.06,3,3,0,0,1-.82-2.22Zm-4.62,15.9a5.63,5.63,0,0,1,2.12-4.53,8.48,8.48,0,0,1,5.6-1.76,8.7,8.7,0,0,1,5.67,1.74,5.92,5.92,0,0,1,0,9.13,8.65,8.65,0,0,1-5.64,1.76A8.43,8.43,0,0,1,299,220.9,5.67,5.67,0,0,1,296.87,216.34Z"/><path class="cls-2" d="M370,195.53l-30.67-14a8.73,8.73,0,0,1-2.73-1.74,2.8,2.8,0,0,1-.8-2,2.56,2.56,0,0,1,.73-1.93,2.74,2.74,0,0,1,2-.71,5,5,0,0,1,1.41.23,15,15,0,0,1,2,.78l33.36,15.32.5.25q3.78,1.68,3.78,3.78t-3.69,3.78l-.59.25L341.9,215.13l-.17.08a9.18,9.18,0,0,1-3.19,1,2.65,2.65,0,0,1-2-.76,2.76,2.76,0,0,1-.73-2,2.79,2.79,0,0,1,.8-2,8.71,8.71,0,0,1,2.73-1.74Z"/></g></g></svg>