<?xml version="1.0" standalone="no"?>
<!DOCTYPE svg PUBLIC "-//W3C//DTD SVG 20010904//EN"
 "http://www.w3.org/TR/2001/REC-SVG-20010904/DTD/svg10.dtd">
<svg version="1.0" xmlns="http://www.w3.org/2000/svg"
 width="384.000000pt" height="384.000000pt" viewBox="0 0 384.000000 384.000000"
 preserveAspectRatio="xMidYMid meet">
<metadata>
Created by potrace 1.11, written by Peter Selinger 2001-2013
</metadata>
<g transform="translate(0.000000,384.000000) scale(0.100000,-0.100000)"
fill="#000000" stroke="none">
<path d="M1730 3819 c-365 -40 -709 -180 -995 -403 -146 -114 -323 -310 -430
-475 -94 -145 -199 -390 -244 -569 -74 -292 -72 -630 4 -926 137 -527 505
-990 975 -1226 286 -144 568 -212 875 -213 316 0 555 58 860 208 471 233 839
677 980 1185 120 432 91 855 -86 1267 -102 240 -225 420 -410 604 -278 276
-640 463 -1029 530 -134 23 -378 32 -500 18z"/>
</g>
</svg>
