<svg xmlns="http://www.w3.org/2000/svg" viewBox="0 0 406 406"><defs><style>.cls-1{fill:#e36414;}</style></defs><title>js</title><g id="Layer_2" data-name="Layer 2"><g id="Layer_1-2" data-name="Layer 1"><circle class="cls-1" cx="203" cy="203" r="203"/><path d="M57.46,141.94q0,1.86-3,8T50,159.76a143.46,143.46,0,0,0-8.56,25.81,114.85,114.85,0,0,0-2.53,24.3,116.65,116.65,0,0,0,2.13,22.48A120,120,0,0,0,47.53,254q2.22,5.85,6.08,13.79t3.86,9.8a5,5,0,0,1-.84,3.06,2.7,2.7,0,0,1-2.26,1.11q-2.75,0-6.12-2.88a50.11,50.11,0,0,1-7.8-9.27,103.57,103.57,0,0,1-3.28-114.76,66.71,66.71,0,0,1,9.49-12.68q4.34-4.26,7.72-4.26a2.7,2.7,0,0,1,2.26,1.11A4.64,4.64,0,0,1,57.46,141.94Z"/><path d="M175.68,241q0,11.26-1.32,17.12a24.77,24.77,0,0,1-4.32,9.76,31,31,0,0,1-14,10,58.85,58.85,0,0,1-21,3.41q-10,0-14.72-2t-4.7-6.3a6.39,6.39,0,0,1,2.26-4.83,7.64,7.64,0,0,1,5.37-2.08,63.59,63.59,0,0,1,7.45.67,63.84,63.84,0,0,0,7.63.67q12.95,0,18.45-6t5.5-20.73V176.79H127.61q-8.6,0-10.78-1.37t-2.17-5a5.79,5.79,0,0,1,1.77-4.62,7.92,7.92,0,0,1,5.32-1.54h48.81a6.34,6.34,0,0,1,3.74,1,3.1,3.1,0,0,1,1.37,2.66ZM151.74,138.74q0-9.49,1.77-12T161,124.2q5.41,0,7.14,2t1.73,9.93q0,7.81-1.6,9.53T161,147.44q-5.77,0-7.54-1.73T151.74,138.74Z"/><path d="M218.79,239.85V224.06q0-3.9,1.46-5.59t4.75-1.69q3.64,0,5.76,5a25.8,25.8,0,0,0,2.57,4.52q3.73,4.79,11,7.67a43.19,43.19,0,0,0,16.05,2.88q9.4,0,15.08-3.81t5.68-10q0-6.3-4.57-9t-15.65-2.66H256q-18.09,0-27.58-6.3T219,186.81q0-11.71,9.27-18.18t26-6.47a53.51,53.51,0,0,1,13.92,1.91q7.09,1.91,7.45,1.91,1,0,3.73-1.73a10.13,10.13,0,0,1,5.41-1.73,5,5,0,0,1,4.48,2.22q1.46,2.22,1.46,6.65v10.38q0,4.7-1.42,6.79a5.08,5.08,0,0,1-4.52,2.08q-2.66,0-6.56-4.52a61.08,61.08,0,0,0-4.52-4.7,29.41,29.41,0,0,0-10-6.25,37.1,37.1,0,0,0-12.51-1.91q-8.34,0-13.44,3.68t-5.1,9.36a8.2,8.2,0,0,0,5.23,8q5.23,2.4,22.53,2.75,18.45.44,27,6.43t8.51,18.49a22.91,22.91,0,0,1-9.4,19.16q-9.4,7.18-25.37,7.18a76.51,76.51,0,0,1-11.26-.93q-6.21-.93-15.61-3.15a42.14,42.14,0,0,1-5.32,3.06,9.33,9.33,0,0,1-3.73,1,5.58,5.58,0,0,1-4.74-2.17A10.22,10.22,0,0,1,218.79,239.85Z"/><path d="M348.36,277.63q0-1.78,3-7.85t4.61-9.71a152.51,152.51,0,0,0,8.51-25.94,113.15,113.15,0,0,0,2.57-24.26,114.42,114.42,0,0,0-2.17-22.3,122.46,122.46,0,0,0-6.61-22q-2.31-5.85-6.12-13.79t-3.81-9.89a4.47,4.47,0,0,1,.89-2.88,2.81,2.81,0,0,1,2.31-1.11q2.93,0,6.25,2.88a52.48,52.48,0,0,1,7.76,9.18,102.69,102.69,0,0,1,14.19,28.47,104.32,104.32,0,0,1,4.7,31.4,102.73,102.73,0,0,1-3.95,28.65A106.33,106.33,0,0,1,368.67,265,75,75,0,0,1,359,277.72q-4.12,4.08-7.49,4.08a2.78,2.78,0,0,1-2.31-1.15A4.81,4.81,0,0,1,348.36,277.63Z"/></g></g></svg>