<svg xmlns="http://www.w3.org/2000/svg" viewBox="0 0 360 360"><defs><style>.cls-1{fill:#f46652;}</style></defs><title>html</title><g id="Layer_2" data-name="Layer 2"><g id="Layer_1-2" data-name="Layer 1"><circle class="cls-1" cx="180" cy="180" r="180"/><path d="M20.72,180.59l34.69,16a10,10,0,0,1,3,2,3.33,3.33,0,0,1,.07,4.47,3.05,3.05,0,0,1-2.3.85,5.22,5.22,0,0,1-1.47-.24,16,16,0,0,1-2.27-.95L14.8,185.13a2.33,2.33,0,0,1-.47-.19Q10,183,10,180.59t4.26-4.26l.57-.28,37.63-17.28a14.53,14.53,0,0,1,2.18-.87,5.72,5.72,0,0,1,1.56-.26,3.16,3.16,0,0,1,2.3.8,2.9,2.9,0,0,1,.83,2.18,3.21,3.21,0,0,1-.9,2.25,9.42,9.42,0,0,1-3,1.92Z"/><path d="M76.18,203.88V155.41h-.9a9,9,0,0,1-4.42-.76A2.88,2.88,0,0,1,69.65,152a3.22,3.22,0,0,1,1-2.56,4.15,4.15,0,0,1,2.82-.85h7.19a3.3,3.3,0,0,1,2,.52,1.67,1.67,0,0,1,.71,1.42V172a26,26,0,0,1,6.84-4.76,16.82,16.82,0,0,1,7-1.54q7.15,0,11.24,4.45t4.09,12.3v21.44h2.24a5.85,5.85,0,0,1,3.43.78,2.9,2.9,0,0,1,1,2.48,3.26,3.26,0,0,1-.95,2.56,4.15,4.15,0,0,1-2.85.85H102.84a4.52,4.52,0,0,1-3-.73,3.6,3.6,0,0,1-.78-2.67,3,3,0,0,1,1-2.58,6.94,6.94,0,0,1,3.7-.69h1.67V184.19q0-5.54-2.51-8.45t-7.3-2.91A12.49,12.49,0,0,0,87,176.1a10.39,10.39,0,0,0-3.68,8.09v19.69H85a7.14,7.14,0,0,1,3.83.71,2.93,2.93,0,0,1,1,2.55,3.61,3.61,0,0,1-.78,2.67,4.5,4.5,0,0,1-3,.73H73.44a4,4,0,0,1-2.77-.85,3.31,3.31,0,0,1-.92-2.56,2.78,2.78,0,0,1,1.11-2.58,9.2,9.2,0,0,1,4.33-.69Z"/><path d="M165.07,169.47a5.66,5.66,0,0,1,3.38.8,3,3,0,0,1,1.06,2.56,3,3,0,0,1-1,2.48,4.57,4.57,0,0,1-3,.83H146.37V192q0,7.76,2,10.22t6.89,2.46a27.66,27.66,0,0,0,10.32-2.51q6-2.51,7.43-2.51a3,3,0,0,1,2.25.95,3.2,3.2,0,0,1,.92,2.32,3.73,3.73,0,0,1-1.16,2.72,11.74,11.74,0,0,1-4,2.25,58.1,58.1,0,0,1-8.35,2.7,31.29,31.29,0,0,1-7,.85,21.74,21.74,0,0,1-9.3-1.77,11.85,11.85,0,0,1-5.61-5.28,12.1,12.1,0,0,1-1.35-3.93,44,44,0,0,1-.4-7V176.14h-8a4.36,4.36,0,0,1-2.89-.78,3.19,3.19,0,0,1-.9-2.53,2.79,2.79,0,0,1,1.23-2.65q1.23-.71,5.25-.71h5.35V157.26a4.38,4.38,0,0,1,.88-3,3.49,3.49,0,0,1,2.72-1,3.24,3.24,0,0,1,2.89,1.18q.8,1.18.8,5.39v9.61Z"/><path d="M227.87,184.19q0-6.67-1.2-9a4.26,4.26,0,0,0-4.13-2.34,6.37,6.37,0,0,0-5.54,3q-2.05,3-2.05,8.33v19.69h.84a7.23,7.23,0,0,1,3.83.69,3,3,0,0,1,1,2.58,3.6,3.6,0,0,1-.8,2.56,3.24,3.24,0,0,1-2.46.85h-6a3.34,3.34,0,0,1-2.77-.95q-.73-.94-.73-4.07v-25a8.88,8.88,0,0,0-1.61-5.61,5.28,5.28,0,0,0-4.4-2.06,6.62,6.62,0,0,0-3.9,1.25,10.16,10.16,0,0,0-3.05,3.71v26.08h1.74a7,7,0,0,1,3.81.71,2.94,2.94,0,0,1,1,2.55,3.54,3.54,0,0,1-.8,2.67,4.68,4.68,0,0,1-3.07.73H184.94a3.83,3.83,0,0,1-2.72-.83,3.4,3.4,0,0,1-.87-2.58,2.79,2.79,0,0,1,1.1-2.58,9.07,9.07,0,0,1,4.3-.69h.94V173.49h-.85a9.23,9.23,0,0,1-4.49-.75,2.86,2.86,0,0,1-1.2-2.63,3.09,3.09,0,0,1,.95-2.47,4.23,4.23,0,0,1,2.84-.82h7.24a2.84,2.84,0,0,1,2.06.54,3.92,3.92,0,0,1,.59,2.28,13,13,0,0,1,4.17-3.06,12.26,12.26,0,0,1,5-1,9.7,9.7,0,0,1,5.48,1.43,8.43,8.43,0,0,1,3.2,4.35,13.18,13.18,0,0,1,4.59-4.38,12.33,12.33,0,0,1,6-1.41q6.11,0,8.93,4T235,182.44v21.44h.75q2.91,0,3.9.71a3,3,0,0,1,1,2.55,3.47,3.47,0,0,1-.85,2.56,3.4,3.4,0,0,1-2.51.85h-5.73a3.34,3.34,0,0,1-2.79-1.14,5.79,5.79,0,0,1-.9-3.6Z"/><path d="M265.31,155.41h-8q-4.59,0-5.75-.73a2.91,2.91,0,0,1-1.16-2.67,3.22,3.22,0,0,1,1-2.56,4.15,4.15,0,0,1,2.82-.85h15.62a3.3,3.3,0,0,1,2,.52,1.67,1.67,0,0,1,.71,1.42v53.34h14.86a3.73,3.73,0,0,1,2.63.78,3.28,3.28,0,0,1,.83,2.48,3.54,3.54,0,0,1-.8,2.67,4.61,4.61,0,0,1-3,.73H252a4.15,4.15,0,0,1-2.82-.85,3.22,3.22,0,0,1-1-2.56,3,3,0,0,1,1-2.46,4.68,4.68,0,0,1,3-.8h13.11Z"/><path d="M339.28,180.59l-34.6-15.81a9.85,9.85,0,0,1-3.08-2,3.15,3.15,0,0,1-.9-2.2,2.89,2.89,0,0,1,.83-2.18,3.09,3.09,0,0,1,2.25-.8,5.61,5.61,0,0,1,1.59.26,17,17,0,0,1,2.2.88L345.2,176l.57.28q4.26,1.89,4.26,4.26t-4.17,4.26l-.66.28-37.63,17.56-.19.09a10.32,10.32,0,0,1-3.6,1.09,3,3,0,0,1-2.25-.85,3.12,3.12,0,0,1-.83-2.27,3.15,3.15,0,0,1,.9-2.2,9.85,9.85,0,0,1,3.08-2Z"/></g></g></svg>