<svg xmlns="http://www.w3.org/2000/svg" viewBox="0 0 406 406"><defs><style>.cls-1{fill:#9a031e;}.cls-2{fill:#fff;}</style></defs><title>ruby</title><g id="Layer_2" data-name="Layer 2"><g id="Layer_1-2" data-name="Layer 1"><circle class="cls-1" cx="203" cy="203" r="203"/><path class="cls-2" d="M18.88,194.51l29.37,13.54a8.45,8.45,0,0,1,2.52,1.66,2.81,2.81,0,0,1,.06,3.79,2.58,2.58,0,0,1-1.94.72,4.43,4.43,0,0,1-1.24-.2,13.65,13.65,0,0,1-1.92-.8L13.87,198.36a2,2,0,0,1-.4-.16q-3.69-1.68-3.69-3.69t3.61-3.61l.48-.24L45.73,176a12.26,12.26,0,0,1,1.84-.74,4.88,4.88,0,0,1,1.32-.22,2.68,2.68,0,0,1,1.94.68,2.46,2.46,0,0,1,.7,1.84,2.71,2.71,0,0,1-.76,1.9,8,8,0,0,1-2.52,1.62Z"/><path class="cls-2" d="M64.53,180.09a10.18,10.18,0,0,1,3.31-7.77,11.87,11.87,0,0,1,8.43-3.08,11.7,11.7,0,0,1,8.34,3.08,10.82,10.82,0,0,1,0,15.53,11.74,11.74,0,0,1-8.34,3.07,11.92,11.92,0,0,1-8.43-3.07A10.12,10.12,0,0,1,64.53,180.09Zm29,7.05a2.94,2.94,0,0,1,.58-.18,2.8,2.8,0,0,1,.54-.06,2.23,2.23,0,0,1,1.62.6,2.13,2.13,0,0,1,.62,1.6,2.16,2.16,0,0,1-.46,1.3,2.63,2.63,0,0,1-1.18.9L68.29,202a4.67,4.67,0,0,1-.58.18,2.22,2.22,0,0,1-.5.06,2.11,2.11,0,0,1-1.58-.64A2.21,2.21,0,0,1,65,200a2.07,2.07,0,0,1,.46-1.28,3,3,0,0,1,1.18-.92Zm-24-7.05a5.64,5.64,0,0,0,1.84,4.37,8,8,0,0,0,9.78,0,6.19,6.19,0,0,0,0-8.82,8,8,0,0,0-9.78,0A5.69,5.69,0,0,0,69.54,180.09Zm4.33,29.05a10.06,10.06,0,0,1,3.31-7.73,12,12,0,0,1,8.44-3,11.85,11.85,0,0,1,8.35,3,10.74,10.74,0,0,1,0,15.49A11.79,11.79,0,0,1,85.61,220a11.94,11.94,0,0,1-8.42-3.07A10.09,10.09,0,0,1,73.86,209.14Zm5,0a5.72,5.72,0,0,0,1.86,4.43,7.84,7.84,0,0,0,9.76,0,5.75,5.75,0,0,0,1.84-4.43,5.68,5.68,0,0,0-1.84-4.43,7.95,7.95,0,0,0-9.76,0A5.66,5.66,0,0,0,78.87,209.14Z"/><path class="cls-2" d="M126.24,214.23h13.3a3.39,3.39,0,0,1,2.3.66,2.69,2.69,0,0,1,.74,2.1,2.94,2.94,0,0,1-.7,2.26,4,4,0,0,1-2.58.62H113.1a3.42,3.42,0,0,1-2.36-.72,2.76,2.76,0,0,1-.8-2.16,2.55,2.55,0,0,1,.82-2.08,3.94,3.94,0,0,1,2.54-.68h7V188.5h-2.73q-3.89,0-4.85-.62a2.46,2.46,0,0,1-1-2.25,2.65,2.65,0,0,1,.78-2.09,3.5,3.5,0,0,1,2.38-.7H124a2.71,2.71,0,0,1,1.64.42,1.43,1.43,0,0,1,.56,1.22v6.81a28,28,0,0,1,7.93-7.09,17.84,17.84,0,0,1,8.9-2.32,10.43,10.43,0,0,1,5.77,1.43A4.29,4.29,0,0,1,151,187a3.67,3.67,0,0,1-1.1,2.62,3.32,3.32,0,0,1-2.42,1.14,7.85,7.85,0,0,1-3.11-1.22,8.2,8.2,0,0,0-3.91-1.22,12.28,12.28,0,0,0-6.59,2.23,38.33,38.33,0,0,0-7.67,7Z"/><path class="cls-2" d="M169.44,205.09q0,5,2.12,7.37t6.73,2.32a10.85,10.85,0,0,0,7.47-2.77,8.91,8.91,0,0,0,3.11-6.94V188.5h-5.49a3.25,3.25,0,0,1-2.26-.66,2.69,2.69,0,0,1-.7-2,2.93,2.93,0,0,1,.76-2.23,3.49,3.49,0,0,1,2.44-.72h8.54a2.86,2.86,0,0,1,2.14.66q.62.66.62,3.23v27.49h1.84a4.82,4.82,0,0,1,2.83.64,2.48,2.48,0,0,1,.86,2.12,2.73,2.73,0,0,1-.82,2.16,3.51,3.51,0,0,1-2.38.72h-6.09a2.8,2.8,0,0,1-1.68-.44,1.41,1.41,0,0,1-.6-1.2v-2.73a29.42,29.42,0,0,1-6.59,4.07,15.4,15.4,0,0,1-5.79,1.1q-6.61,0-9.92-3.51t-3.31-10.61V188.5h-.84a7.58,7.58,0,0,1-3.73-.64,2.43,2.43,0,0,1-1-2.23,2.65,2.65,0,0,1,.78-2.09,3.57,3.57,0,0,1,2.42-.7H167a2.66,2.66,0,0,1,1.94.56,3.84,3.84,0,0,1,.54,2.48Z"/><path class="cls-2" d="M218.33,188.62a14.61,14.61,0,0,1,5.61-4.29,18.71,18.71,0,0,1,7.61-1.48A18.11,18.11,0,0,1,245,188.28a18.37,18.37,0,0,1,5.37,13.44,18.78,18.78,0,0,1-19,18.88,17,17,0,0,1-7.33-1.48,12.55,12.55,0,0,1-5.13-4.49v3.21a2.54,2.54,0,0,1-.38,1.56,1.52,1.52,0,0,1-1.26.48H210a3.27,3.27,0,0,1-2.32-.72,2.84,2.84,0,0,1-.76-2.16,2.38,2.38,0,0,1,.92-2.18,7.66,7.66,0,0,1,3.65-.58h.84v-41h-.76a7.52,7.52,0,0,1-3.73-.64,2.46,2.46,0,0,1-1-2.24,2.76,2.76,0,0,1,.8-2.16,3.43,3.43,0,0,1,2.36-.72H216a3,3,0,0,1,1.74.4,1.44,1.44,0,0,1,.54,1.24Zm12.5,25.69a12.34,12.34,0,0,0,9.18-3.57,12.6,12.6,0,0,0,3.53-9.26,12.47,12.47,0,0,0-3.59-9.18,13.35,13.35,0,0,0-18.23,0,13.72,13.72,0,0,0,0,18.41A12.23,12.23,0,0,0,230.83,214.31Z"/><path class="cls-2" d="M274.91,230.14h1.72a8.61,8.61,0,0,1,4,.62,2.41,2.41,0,0,1,1,2.26,2.68,2.68,0,0,1-.82,2.12,3.51,3.51,0,0,1-2.38.72H260a4.07,4.07,0,0,1-2.62-.64,3.51,3.51,0,0,1,0-4.37,3.35,3.35,0,0,1,2.34-.72h8.7l6.49-12.8L260.2,188.5a7.22,7.22,0,0,1-3.63-.64,2.45,2.45,0,0,1-1-2.23,2.61,2.61,0,0,1,.8-2.09,3.58,3.58,0,0,1,2.4-.7H270a5.1,5.1,0,0,1,3,.62,2.65,2.65,0,0,1,.76,2.17,2.44,2.44,0,0,1-1,2.23,7.46,7.46,0,0,1-3.69.64h-1.48l10.86,22.12L289.5,188.5h-1.56a8,8,0,0,1-3.81-.64,2.4,2.4,0,0,1-1-2.23,2.65,2.65,0,0,1,.76-2.17,5.2,5.2,0,0,1,3-.62h9.9a3.57,3.57,0,0,1,2.42.7,2.65,2.65,0,0,1,.78,2.09,2.47,2.47,0,0,1-.88,2.15,6,6,0,0,1-3.13.72Z"/><path class="cls-2" d="M310.78,180.09a10.18,10.18,0,0,1,3.31-7.77,11.87,11.87,0,0,1,8.43-3.08,11.7,11.7,0,0,1,8.34,3.08,10.82,10.82,0,0,1,0,15.53,11.74,11.74,0,0,1-8.34,3.07,11.92,11.92,0,0,1-8.43-3.07A10.12,10.12,0,0,1,310.78,180.09Zm29,7.05a2.94,2.94,0,0,1,.58-.18,2.8,2.8,0,0,1,.54-.06,2.23,2.23,0,0,1,1.62.6,2.13,2.13,0,0,1,.62,1.6,2.16,2.16,0,0,1-.46,1.3,2.63,2.63,0,0,1-1.18.9L314.54,202a4.67,4.67,0,0,1-.58.18,2.22,2.22,0,0,1-.5.06,2.11,2.11,0,0,1-1.58-.64,2.21,2.21,0,0,1-.62-1.6,2.07,2.07,0,0,1,.46-1.28,3,3,0,0,1,1.18-.92Zm-24-7.05a5.64,5.64,0,0,0,1.84,4.37,8,8,0,0,0,9.78,0,6.19,6.19,0,0,0,0-8.82,8,8,0,0,0-9.78,0A5.69,5.69,0,0,0,315.79,180.09Zm4.33,29.05a10.06,10.06,0,0,1,3.31-7.73,13.09,13.09,0,0,1,16.79,0,10.74,10.74,0,0,1,0,15.49,11.79,11.79,0,0,1-8.37,3.07,11.94,11.94,0,0,1-8.42-3.07A10.09,10.09,0,0,1,320.11,209.14Zm5,0a5.72,5.72,0,0,0,1.86,4.43,7.84,7.84,0,0,0,9.76,0,5.75,5.75,0,0,0,1.84-4.43,5.68,5.68,0,0,0-1.84-4.43,7.95,7.95,0,0,0-9.76,0A5.66,5.66,0,0,0,325.12,209.14Z"/><path class="cls-2" d="M387.12,194.51l-29.29-13.38a8.31,8.31,0,0,1-2.6-1.66,2.66,2.66,0,0,1-.76-1.86,2.45,2.45,0,0,1,.7-1.84,2.62,2.62,0,0,1,1.9-.68,4.77,4.77,0,0,1,1.34.22,14.37,14.37,0,0,1,1.86.74l31.86,14.63.48.24q3.61,1.6,3.61,3.61t-3.53,3.61l-.56.24-31.86,14.87-.16.08a8.75,8.75,0,0,1-3,.92,2.53,2.53,0,0,1-1.9-.72,2.64,2.64,0,0,1-.7-1.92,2.67,2.67,0,0,1,.76-1.86,8.31,8.31,0,0,1,2.6-1.66Z"/></g></g></svg>